<?xml version="1.0" encoding="UTF-8" standalone="no"?>
<svg width="48px" height="48px" viewBox="0 0 48 48" version="1.1" xmlns="http://www.w3.org/2000/svg" xmlns:xlink="http://www.w3.org/1999/xlink" xmlns:sketch="http://www.bohemiancoding.com/sketch/ns">
    <!-- Generator: Sketch 3.3.3 (12081) - http://www.bohemiancoding.com/sketch -->
    <title>catergy-logo</title>
    <desc>Created with Sketch.</desc>
    <defs></defs>
    <g id="Page-1" stroke="none" stroke-width="1" fill="none" fill-rule="evenodd" sketch:type="MSPage">
        <g id="catergy-logo" sketch:type="MSLayerGroup" fill="#2E2503">
            <g id="Group" sketch:type="MSShapeGroup">
                <path d="M24,47.5 C11,47.5 0.5,36.8 0.5,23.7 C0.5,23.3 0.7,23 1,22.8 C4.7,20.6 6.5,19.6 7.4,19.1 C6,9.3 11.4,1.3 11.6,0.9 C11.8,0.6 12.2,0.4 12.5,0.5 C12.9,0.5 13.2,0.8 13.3,1.1 L20,17.7 C22.7,17.1 25.4,17.1 28.1,17.7 L34.7,1.1 C34.8,0.8 35.2,0.5 35.5,0.5 C35.9,0.5 36.2,0.6 36.4,0.9 C36.6,1.2 42,9.3 40.6,19.1 C41.5,19.6 43.3,20.6 47,22.8 C47.3,23 47.5,23.3 47.5,23.7 C47.5,36.8 37,47.5 24,47.5 L24,47.5 Z M2.5,24.3 C2.8,36 12.3,45.5 24,45.5 C35.7,45.5 45.2,36 45.5,24.3 C43.1,22.9 39.7,20.9 39.2,20.6 C39,20.5 38.9,20.4 38.8,20.3 C38.6,20.1 38.5,19.8 38.6,19.5 C39.8,12.7 37.3,6.6 35.8,3.8 L29.6,19.3 C29.4,19.8 28.9,20 28.4,19.9 C25.5,19.1 22.5,19.1 19.6,19.9 C19.1,20 18.6,19.8 18.4,19.3 L12.3,3.8 C10.8,6.7 8.3,12.7 9.5,19.5 C9.5,19.8 9.5,20.1 9.3,20.3 C9.2,20.4 9,20.5 8.9,20.6 C8.3,20.9 4.9,22.9 2.5,24.3 L2.5,24.3 Z" id="Shape"></path>
                <g transform="translate(10.000000, 24.000000)" id="Shape">
                    <path d="M22,7.2 L22,7.2 C21.1,7.2 20.2,7 19.4,6.5 C19.1,6.3 18.9,6 18.9,5.6 C18.9,3.7 19.9,2 21.4,1.1 C23,0.2 25,0.2 26.5,1.1 C26.8,1.3 27,1.6 27,2 C27,3.9 26,5.6 24.5,6.5 C23.8,7 22.9,7.2 22,7.2 L22,7.2 Z M20.9,5 C21.8,5.3 22.7,5.2 23.5,4.8 C24.3,4.3 24.8,3.5 25,2.6 C24.1,2.3 23.2,2.4 22.4,2.8 C21.6,3.3 21.1,4.1 20.9,5 L20.9,5 Z"></path>
                    <path d="M6.1,7.1 C5.2,7.1 4.3,6.9 3.5,6.4 C1.9,5.5 0.9,3.7 0.9,1.9 C0.9,1.5 1.1,1.2 1.4,1 C3,0.1 5,0.1 6.5,1 C8.1,1.9 9.1,3.7 9.1,5.5 C9.1,5.9 8.9,6.2 8.6,6.4 C7.8,6.9 7,7.1 6.1,7.1 L6.1,7.1 Z M3,2.5 C3.2,3.4 3.7,4.2 4.5,4.7 C5.3,5.2 6.2,5.2 7.1,5 C6.9,4.1 6.4,3.3 5.6,2.8 C4.8,2.3 3.8,2.2 3,2.5 L3,2.5 Z"></path>
                </g>
                <path d="M24,41.8 C23.7,41.8 23.5,41.7 23.3,41.5 L18,36.2 C17.7,35.9 17.6,35.5 17.8,35.1 C18,34.7 18.3,34.5 18.7,34.5 L29.3,34.5 C29.7,34.5 30.1,34.7 30.2,35.1 C30.4,35.5 30.3,35.9 30,36.2 L24.7,41.5 C24.5,41.7 24.3,41.8 24,41.8 L24,41.8 Z M21.1,36.5 L24,39.4 L26.9,36.5 L21.1,36.5 L21.1,36.5 Z" id="Shape"></path>
                <path d="M24,47.5 C23.4,47.5 23,47.1 23,46.5 L23,40.8 C23,40.2 23.4,39.8 24,39.8 C24.6,39.8 25,40.2 25,40.8 L25,46.5 C25,47.1 24.6,47.5 24,47.5 L24,47.5 Z" id="Shape"></path>
                <g transform="translate(29.000000, 34.000000)" id="Shape">
                    <path d="M16.4,5.2 L16.2,5.2 L3.8,2.5 C3.3,2.4 2.9,1.9 3,1.3 C3.1,0.8 3.6,0.4 4.2,0.5 L16.6,3.2 C17.1,3.3 17.5,3.8 17.4,4.4 C17.3,4.8 16.9,5.2 16.4,5.2 L16.4,5.2 Z"></path>
                    <path d="M16.1,9.6 L15.9,9.6 L1.7,6.8 C1.2,6.7 0.8,6.2 0.9,5.6 C1,5.1 1.5,4.7 2.1,4.8 L16.3,7.6 C16.8,7.7 17.2,8.2 17.1,8.8 C17,9.2 16.6,9.6 16.1,9.6 L16.1,9.6 Z"></path>
                </g>
                <g transform="translate(0.000000, 34.000000)" id="Shape">
                    <path d="M1.5,5.2 C1,5.2 0.6,4.9 0.5,4.4 C0.4,3.9 0.7,3.3 1.3,3.2 L13.7,0.5 C14.2,0.4 14.8,0.7 14.9,1.3 C15,1.9 14.7,2.4 14.1,2.5 L1.7,5.1 C1.6,5.1 1.6,5.2 1.5,5.2 L1.5,5.2 Z"></path>
                    <path d="M1.8,9.6 C1.3,9.6 0.9,9.3 0.8,8.8 C0.7,8.3 1,7.7 1.6,7.6 L15.8,4.8 C16.3,4.7 16.9,5 17,5.6 C17.1,6.1 16.8,6.7 16.2,6.8 L2,9.5 C1.9,9.5 1.8,9.6 1.8,9.6 L1.8,9.6 Z"></path>
                </g>
            </g>
        </g>
    </g>
</svg>